<?xml version="1.0" encoding="utf-8"?>
<!-- Generator: Adobe Illustrator 26.1.0, SVG Export Plug-In . SVG Version: 6.00 Build 0)  -->
<svg version="1.1" xmlns="http://www.w3.org/2000/svg" xmlns:xlink="http://www.w3.org/1999/xlink" x="0px" y="0px"
	 viewBox="0 0 408.19 331.65" style="enable-background:new 0 0 408.19 331.65;" xml:space="preserve">
<style type="text/css">
	.st0{display:none;}
	.st1{display:inline;}
	.st2{display:inline;fill:none;stroke:#E42013;stroke-width:0.5;stroke-miterlimit:10;}
	.st3{display:inline;fill:none;stroke:#E42013;stroke-width:0.4375;stroke-miterlimit:10;}
	.st4{display:inline;fill:none;stroke:#E42013;stroke-width:0.4762;stroke-miterlimit:10;}
	.st5{display:inline;fill:none;stroke:#E42013;stroke-width:0.4615;stroke-miterlimit:10;}
	.st6{display:inline;fill:none;stroke:#27348B;stroke-width:0.5;stroke-miterlimit:10;}
	.st7{display:inline;fill:none;stroke:#27348B;stroke-width:0.4375;stroke-miterlimit:10;}
	.st8{display:inline;fill:none;stroke:#27348B;stroke-width:0.4762;stroke-miterlimit:10;}
	.st9{display:inline;fill:none;stroke:#27348B;stroke-width:0.4615;stroke-miterlimit:10;}
</style>
<g id="IMG" class="st0">
</g>
<g id="Repères" class="st0">
	<rect x="19.84" y="507.4" class="st1" width="141.73" height="48.19"/>
	<rect x="246.61" y="507.4" class="st1" width="141.73" height="48.19"/>
</g>
<g id="Vecto_x5F_Base_x5F_1" class="st0">
	<ellipse class="st2" cx="2194.02" cy="308.98" rx="209.76" ry="212.6"/>
	<ellipse class="st3" cx="2194.02" cy="308.98" rx="96.73" ry="99.21"/>
	<line class="st2" x1="2194.02" y1="308.98" x2="1932.26" y2="18.27"/>
	<line class="st2" x1="2194.02" y1="308.98" x2="2455.77" y2="18.27"/>
	<circle class="st2" cx="2194.02" cy="308.98" r="70.87"/>
	<circle class="st4" cx="2194.02" cy="308.98" r="283.46"/>
	<ellipse class="st5" cx="2194.02" cy="308.98" rx="167.46" ry="170.08"/>
	<line class="st2" x1="2194.02" y1="308.98" x2="1932.26" y2="18.27"/>
	<line class="st2" x1="2194.02" y1="308.98" x2="2455.77" y2="18.27"/>
	<ellipse class="st2" cx="1258.58" cy="308.98" rx="209.76" ry="212.6"/>
	<ellipse class="st3" cx="1258.58" cy="308.98" rx="96.73" ry="99.21"/>
	<line class="st2" x1="1258.58" y1="308.98" x2="996.83" y2="18.27"/>
	<line class="st2" x1="1258.58" y1="308.98" x2="1520.33" y2="18.27"/>
	<circle class="st2" cx="1258.58" cy="308.98" r="70.87"/>
	<circle class="st4" cx="1258.58" cy="308.98" r="283.46"/>
	<ellipse class="st5" cx="1258.58" cy="308.98" rx="167.46" ry="170.08"/>
	<line class="st2" x1="1258.58" y1="308.98" x2="996.83" y2="18.27"/>
	<line class="st2" x1="1258.58" y1="308.98" x2="1520.33" y2="18.27"/>
	<ellipse class="st2" cx="204.09" cy="308.98" rx="209.76" ry="212.6"/>
	<ellipse class="st3" cx="204.09" cy="308.98" rx="96.73" ry="99.21"/>
	<line class="st2" x1="204.09" y1="308.98" x2="-57.66" y2="18.27"/>
	<line class="st2" x1="204.09" y1="308.98" x2="465.85" y2="18.27"/>
	<circle class="st2" cx="204.09" cy="308.98" r="70.87"/>
	<circle class="st4" cx="204.09" cy="308.98" r="283.46"/>
	<ellipse class="st5" cx="204.09" cy="308.98" rx="167.46" ry="170.08"/>
	<line class="st2" x1="204.09" y1="308.98" x2="-57.66" y2="18.27"/>
	<line class="st2" x1="204.09" y1="308.98" x2="465.85" y2="18.27"/>
</g>
<g id="Vecto" class="st0">
	<ellipse class="st6" cx="2194.02" cy="308.98" rx="209.76" ry="212.6"/>
	<ellipse class="st7" cx="2194.02" cy="308.98" rx="96.73" ry="99.21"/>
	<circle class="st8" cx="2194.02" cy="308.98" r="283.46"/>
	<ellipse class="st9" cx="2194.02" cy="308.98" rx="167.46" ry="170.08"/>
	<text transform="matrix(1 0 0 1 2213.8584 -56.6924)" class="st1" style="font-family:'CervoNeue-BoldNeue'; font-size:26px;">DU</text>
	<ellipse class="st6" cx="1258.58" cy="308.98" rx="209.76" ry="212.6"/>
	<ellipse class="st7" cx="1258.58" cy="308.98" rx="96.73" ry="99.21"/>
	<circle class="st8" cx="1258.58" cy="308.98" r="283.46"/>
	<ellipse class="st9" cx="1258.58" cy="308.98" rx="167.46" ry="170.08"/>
	<text transform="matrix(1 0 0 1 1278.4254 -56.6924)" class="st1" style="font-family:'CervoNeue-BoldNeue'; font-size:26px;">DU</text>
	<ellipse class="st6" cx="204.09" cy="308.98" rx="209.76" ry="212.6"/>
	<ellipse class="st7" cx="204.09" cy="308.98" rx="96.73" ry="99.21"/>
	<circle class="st8" cx="204.09" cy="308.98" r="283.46"/>
	<ellipse class="st9" cx="204.09" cy="308.98" rx="167.46" ry="170.08"/>
	<text transform="matrix(1 0 0 1 223.9376 -56.6924)" class="st1" style="font-family:'CervoNeue-BoldNeue'; font-size:26px;">DU</text>
</g>
<g id="TXT">
	<g>
		<path d="M243.92,264.74c-10.55-9.5-24.51-15.29-39.83-15.29s-29.28,5.79-39.83,15.29l39.83,44.23L243.92,264.74z"/>
	</g>
	<g>
		<path d="M79.01,125.16l5.1,6.27c0.89,1.09,0.81,1.89-0.29,2.78l-19.7,16.01c-1.09,0.89-1.89,0.81-2.78-0.29L19.38,98.28
			c-0.89-1.09-0.81-1.89,0.29-2.78l7.44-6.05c1.09-0.89,1.89-0.81,2.78,0.29l34.5,42.46c0.89,1.09,1.42,1.15,2.51,0.26l9.34-7.59
			C77.33,123.98,78.12,124.06,79.01,125.16z"/>
		<path d="M47.57,76.33c-0.91-1.2-0.64-1.83,0.53-2.6l5.57-3.68c1.18-0.78,1.85-0.77,2.6,0.53l10.1,16.65
			c0.65,1.15,0.72,1.78-0.45,2.55l-4.47,2.95c-1.18,0.78-1.72,0.46-2.53-0.58L47.57,76.33z"/>
		<path d="M74.06,60.19c-0.38-1.6,0.08-2.14,1.42-2.82l6.8-3.43c1.34-0.68,2.06-0.72,3.11,0.53l44.27,52.41
			c0.97,1.09,0.51,1.85-0.41,2.31l-8.81,4.45c-1.09,0.55-1.85,0.51-2.86-0.66l-5.24-6.41c-0.76-0.88-1.18-0.88-2.27-0.33l-8.98,4.53
			c-1.09,0.55-1.34,0.89-1.09,2.02l2.05,8.02c0.34,1.51-0.08,2.14-1.17,2.7l-8.81,4.45c-0.92,0.47-1.81,0.39-2.11-1.04L74.06,60.19z
			 M96.92,99.41l6.54-3.31c0.42-0.21,0.59-0.72,0.21-1.26L91.5,79.29c-0.46-0.5-1.22-0.12-1.01,0.51l5.29,19.02
			C95.91,99.5,96.41,99.66,96.92,99.41z"/>
		<path d="M132.75,105.25l-14.77-64.9c-0.31-1.38,0.11-2.05,1.49-2.36l6.42-1.46c1.38-0.31,2.04,0.5,2.55,1.45l23.05,37.75
			c0.31,0.51,1.04,0.34,1.1-0.25l4.45-44.01c0.14-1.09,0.3-2.09,1.67-2.4l6.42-1.46c1.38-0.31,2.05,0.11,2.36,1.49l14.77,64.9
			c0.31,1.37-0.11,2.05-1.49,2.36l-9.35,2.13c-1.38,0.31-2.05-0.11-2.36-1.49l-5.57-24.47c-0.17-0.73-1.01-0.64-1.14,0.07
			l-2.25,26.54c-0.17,1.39-0.5,2.04-1.97,2.38l-0.37,0.08c-1.47,0.33-2.05-0.11-2.8-1.29l-13.51-22.95c-0.33-0.6-1.22-0.3-1.06,0.43
			l5.57,24.47c0.31,1.38-0.11,2.05-1.49,2.36l-9.35,2.13C133.74,107.05,133.06,106.63,132.75,105.25z"/>
		<path d="M184.47,28.46c-0.07-1.41,0.47-2,1.88-2.06l9.58-0.44c1.41-0.07,2,0.47,2.06,1.88l3.07,66.48c0.06,1.41-0.47,2-1.88,2.06
			l-9.58,0.44c-1.41,0.06-2-0.47-2.06-1.88L184.47,28.46z"/>
		<path d="M208.29,72.23l2.49-23.75c1.52-14.49,9.06-23.34,22.99-21.88c13,1.36,18.54,10.73,17.64,21.04c0,0.94-0.27,1.67-1.39,1.56
			l-10.19-1.07c-1.03-0.11-1.46-0.53-1.44-1.57c-0.21-3.42-1.62-7.07-5.92-7.52c-5.24-0.55-7.54,4.31-8.23,10.86l-2.49,23.75
			c-0.69,6.54,0.56,11.78,5.8,12.33c4.3,0.45,6.44-2.82,7.35-6.13c0.2-1.02,0.71-1.34,1.74-1.24l10.19,1.07
			c1.12,0.12,1.23,0.88,1.04,1.81c-1.26,10.26-8.63,18.28-21.62,16.92C212.32,96.94,206.77,86.72,208.29,72.23z"/>
		<path d="M280.07,38.3c0.83-1.41,1.55-1.49,2.98-1.04l7.27,2.26c1.44,0.45,1.98,0.91,1.87,2.55l-4.66,68.44
			c-0.06,1.46-0.92,1.68-1.9,1.38l-9.42-2.93c-1.17-0.36-1.68-0.92-1.6-2.47l0.7-8.25c0.07-1.16-0.24-1.45-1.4-1.81l-9.6-2.99
			c-1.17-0.36-1.58-0.29-2.19,0.7l-4.11,7.19c-0.81,1.32-1.55,1.49-2.71,1.12l-9.42-2.93c-0.99-0.31-1.57-0.98-0.79-2.21
			L280.07,38.3z M269.21,82.37l7,2.18c0.45,0.14,0.92-0.11,1.03-0.76l2.07-19.63c0.02-0.68-0.79-0.94-1.08-0.33l-9.43,17.34
			C268.42,81.73,268.67,82.2,269.21,82.37z"/>
		<path d="M322.26,120.5l-3.88,7.1c-0.68,1.24-1.44,1.46-2.68,0.79l-22.28-12.17c-1.24-0.68-1.46-1.44-0.79-2.68l31.9-58.41
			c0.68-1.24,1.44-1.46,2.68-0.79l8.42,4.6c1.24,0.68,1.46,1.44,0.79,2.68l-26.22,48.02c-0.68,1.24-0.53,1.75,0.71,2.42l10.56,5.77
			C322.71,118.5,322.94,119.27,322.26,120.5z"/>
		<path d="M360.24,107.17c-0.88,1.1-0.82,1.63,0.28,2.51l10.56,8.47c1.1,0.88,1.19,1.68,0.3,2.78l-5.06,6.3
			c-0.88,1.1-1.67,1.19-2.77,0.3l-10.56-8.47c-1.1-0.88-1.63-0.82-2.51,0.27l-8.88,11.07c-0.88,1.1-0.82,1.63,0.27,2.51l10.56,8.47
			c1.1,0.88,1.19,1.68,0.3,2.77l-5.06,6.3c-0.88,1.1-1.68,1.19-2.77,0.3l-20.96-16.83c-1.1-0.88-1.19-1.68-0.3-2.77l41.66-51.9
			c0.88-1.1,1.67-1.19,2.77-0.3l20.96,16.83c1.1,0.88,1.19,1.68,0.3,2.77l-5.06,6.3c-0.88,1.1-1.68,1.19-2.78,0.3l-10.56-8.47
			c-1.1-0.88-1.63-0.82-2.51,0.27L360.24,107.17z"/>
	</g>
	<g>
		<path d="M136.46,232.72L90.5,182.67c-1.03-1.13-0.83-1.7,0.13-2.29l8.47-5.24c1.04-0.64,1.88-0.72,2.91,0.41l23.26,26.73
			c0.43,0.51,1.2,0.15,1.01-0.51l-12.2-33.68c-0.6-1.51-0.19-2.09,1.09-2.88l4-2.47c1.28-0.79,1.91-0.85,3.07,0.31l24.59,26.02
			c0.51,0.46,1.18-0.06,0.91-0.67l-13.43-32.81c-0.63-1.38-0.11-2.14,0.93-2.79l8.47-5.24c0.88-0.54,1.56-0.52,2.11,0.91
			l24.14,63.54c0.6,1.51,0.27,2.04-1.09,2.88l-5.36,3.31c-1.28,0.79-2.04,0.82-3.07-0.31l-26.44-27.75
			c-0.51-0.46-1.23-0.02-0.96,0.59l13,36.05c0.47,1.48,0.19,2.09-1.09,2.88l-5.44,3.36C138.17,233.87,137.54,233.93,136.46,232.72z"
			/>
		<path d="M188.09,141.85c-0.08-1.41,0.46-2,1.87-2.08l9.58-0.51c1.41-0.07,2,0.46,2.08,1.87l3.54,66.46c0.07,1.41-0.46,2-1.87,2.08
			l-9.57,0.51c-1.41,0.08-2-0.46-2.08-1.87L188.09,141.85z"/>
		<path d="M275.84,156.89l-2.78,7.59c-0.48,1.32-1.21,1.66-2.53,1.17l-12.98-4.75c-1.32-0.48-1.81-0.26-2.29,1.06l-4.49,12.27
			c-0.48,1.32-0.26,1.81,1.06,2.29l8.56,3.14c1.32,0.48,1.66,1.21,1.17,2.53l-2.78,7.59c-0.48,1.32-1.21,1.66-2.53,1.18l-8.56-3.14
			c-1.32-0.48-1.81-0.26-2.29,1.06l-8.95,24.45c-0.48,1.32-1.21,1.66-2.53,1.18l-9-3.3c-1.32-0.48-1.66-1.21-1.17-2.53l22.88-62.5
			c0.48-1.32,1.21-1.66,2.53-1.17l25.51,9.34C275.99,154.85,276.33,155.57,275.84,156.89z"/>
		<path d="M307.25,177.75c0.93-1.06,1.73-1.11,2.79-0.18l7.2,6.33c1.06,0.93,1.11,1.73,0.18,2.79l-43.96,49.96
			c-0.93,1.06-1.73,1.11-2.79,0.18l-7.2-6.33c-1.06-0.93-1.11-1.73-0.18-2.79L307.25,177.75z"/>
	</g>
	<g>
		<path d="M202.7,113.13l0.38,7.97c0.26,5.56-2.05,9.24-7.68,9.51l-6.5,0.31c-0.53,0.02-0.74-0.17-0.77-0.7l-1.18-24.75
			c-0.03-0.52,0.17-0.74,0.7-0.77l6.5-0.31C199.78,104.12,202.43,107.57,202.7,113.13z M197.65,113.16
			c-0.12-2.55-0.88-4.41-3.53-4.28l-1.29,0.06c-0.53,0.02-0.66,0.17-0.63,0.7l0.76,15.94c0.03,0.52,0.17,0.66,0.7,0.63l1.29-0.06
			c2.66-0.13,3.23-2.05,3.11-4.6L197.65,113.16z"/>
		<path d="M223.78,105.69L223,118.73l-0.23,3.77c-0.32,5.42-3.02,8.83-8.19,8.52c-5.21-0.31-7.44-4.02-7.12-9.44l0.36-5.98
			l0.65-10.83c0.03-0.52,0.25-0.72,0.78-0.69l3.56,0.21c0.52,0.03,0.72,0.25,0.69,0.78l-0.77,12.82l-0.24,3.98
			c-0.15,2.45,0.4,4.37,2.36,4.49c1.96,0.12,2.7-1.73,2.84-4.18l0.36-6.01l0.65-10.8c0.03-0.52,0.25-0.72,0.78-0.69l3.6,0.22
			C223.61,104.95,223.81,105.17,223.78,105.69z"/>
	</g>
</g>
<g id="Espace_Coworking">
	<g>
		<path d="M268.37,298.6v-11.59c0-3.28,1.74-4.93,4.2-4.93c2.3,0,3.78,1.46,4.03,3.78c0.03,0.25-0.03,0.5-0.36,0.5h-0.56
			c-0.31,0-0.42-0.08-0.48-0.36c-0.31-1.51-1.29-2.46-2.6-2.46c-1.37,0-2.72,1.01-2.72,3.47v11.59c0,2.46,1.34,3.47,2.72,3.47
			c1.32,0,2.3-0.95,2.6-2.46c0.06-0.28,0.17-0.36,0.48-0.36h0.56c0.34,0,0.39,0.25,0.36,0.5c-0.25,2.32-1.74,3.78-4.03,3.78
			C270.11,303.53,268.37,301.88,268.37,298.6z"/>
		<path d="M280.52,298.6v-11.59c0-3.28,1.74-4.93,4.2-4.93s4.2,1.65,4.2,4.93v11.59c0,3.28-1.74,4.93-4.2,4.93
			S280.52,301.88,280.52,298.6z M287.41,298.6v-11.59c0-2.46-1.34-3.47-2.69-3.47c-1.34,0-2.69,1.01-2.69,3.47v11.59
			c0,2.46,1.34,3.47,2.69,3.47C286.06,302.07,287.41,301.07,287.41,298.6z"/>
		<path d="M295.44,302.75l-3.28-19.88c-0.08-0.45,0.08-0.56,0.39-0.56h0.48c0.36,0,0.62,0.11,0.67,0.56l2.44,16.38
			c0.03,0.22,0.31,0.22,0.34,0l2.86-16.38c0.08-0.48,0.28-0.56,0.73-0.56h0.28c0.45,0,0.64,0.08,0.73,0.56l2.86,16.38
			c0.03,0.22,0.31,0.22,0.34,0l2.44-16.38c0.06-0.45,0.31-0.56,0.67-0.56h0.48c0.31,0,0.48,0.11,0.39,0.56l-3.28,19.88
			c-0.08,0.48-0.28,0.56-0.73,0.56h-0.28c-0.45,0-0.64-0.08-0.73-0.56l-2.86-16.38c-0.03-0.2-0.31-0.2-0.34,0l-2.86,16.38
			c-0.08,0.48-0.28,0.56-0.73,0.56h-0.28C295.72,303.31,295.53,303.22,295.44,302.75z"/>
		<path d="M311.49,298.6v-11.59c0-3.28,1.74-4.93,4.2-4.93s4.2,1.65,4.2,4.93v11.59c0,3.28-1.74,4.93-4.2,4.93
			S311.49,301.88,311.49,298.6z M318.38,298.6v-11.59c0-2.46-1.34-3.47-2.69-3.47c-1.34,0-2.69,1.01-2.69,3.47v11.59
			c0,2.46,1.34,3.47,2.69,3.47C317.03,302.07,318.38,301.07,318.38,298.6z"/>
		<path d="M332.99,303.31h-0.62c-0.34,0-0.5-0.11-0.62-0.39l-3.3-8.51h-0.14h-1.76c-0.42,0-0.53,0.11-0.53,0.53v7.78
			c0,0.42-0.17,0.59-0.59,0.59h-0.34c-0.42,0-0.59-0.17-0.59-0.59v-19.82c0-0.42,0.17-0.59,0.59-0.59h3.22c2.46,0,4.2,1.65,4.2,4.93
			v2.24c0,2.52-1.01,4.06-2.6,4.65l3.39,8.62C333.44,303.08,333.3,303.31,332.99,303.31z M328.32,293.06c1.34,0,2.69-1.01,2.69-3.47
			v-2.46c0-2.46-1.34-3.47-2.69-3.47h-1.76c-0.42,0-0.53,0.11-0.53,0.53v8.34c0,0.42,0.11,0.53,0.53,0.53H328.32z"/>
		<path d="M345.84,302.83c0.11,0.25,0.06,0.48-0.22,0.48h-0.73c-0.31,0-0.53-0.11-0.64-0.36l-4.03-9.41c-0.08-0.2-0.28-0.2-0.39,0
			l-0.87,1.65c-0.25,0.45-0.31,0.67-0.31,1.09v6.44c0,0.42-0.17,0.59-0.59,0.59h-0.34c-0.42,0-0.59-0.17-0.59-0.59v-19.82
			c0-0.42,0.17-0.59,0.59-0.59h0.34c0.42,0,0.59,0.17,0.59,0.59v9.38c0,0.2,0.22,0.22,0.31,0.08l5.15-9.72
			c0.14-0.25,0.34-0.34,0.64-0.34h0.7c0.28,0,0.36,0.22,0.22,0.48l-4.51,8.51c-0.11,0.2-0.08,0.39,0,0.62L345.84,302.83z"/>
		<path d="M349.4,282.89c0-0.42,0.17-0.59,0.59-0.59h0.34c0.42,0,0.59,0.17,0.59,0.59v19.82c0,0.42-0.17,0.59-0.59,0.59h-0.34
			c-0.42,0-0.59-0.17-0.59-0.59V282.89z"/>
		<path d="M364.91,282.89v19.82c0,0.42-0.17,0.59-0.59,0.59h-0.28c-0.42,0-0.59-0.11-0.76-0.59l-5.8-15.54
			c-0.08-0.22-0.31-0.17-0.31,0.03v15.51c0,0.42-0.17,0.59-0.59,0.59h-0.34c-0.42,0-0.59-0.17-0.59-0.59v-19.82
			c0-0.42,0.17-0.59,0.59-0.59h0.28c0.42,0,0.59,0.11,0.76,0.59l5.8,15.54c0.08,0.22,0.31,0.17,0.31-0.03v-15.51
			c0-0.42,0.17-0.59,0.59-0.59h0.34C364.74,282.31,364.91,282.48,364.91,282.89z"/>
		<path d="M377.93,292.25v6.36c0,3.28-1.74,4.93-4.2,4.93s-4.2-1.65-4.2-4.93v-11.59c0-3.28,1.74-4.93,4.2-4.93
			c2.3,0,3.81,1.46,4.06,3.78c0.03,0.25-0.03,0.5-0.36,0.5h-0.62c-0.31,0-0.42-0.08-0.48-0.39c-0.28-1.48-1.26-2.44-2.58-2.44
			c-1.37,0-2.72,1.01-2.72,3.47v11.59c0,2.46,1.34,3.47,2.72,3.47c1.32,0,2.66-1.01,2.66-3.47v-5.01c0-0.56,0-0.56-0.56-0.56h-1.51
			c-0.42,0-0.56-0.14-0.56-0.56v-0.22c0-0.42,0.14-0.56,0.56-0.56h3.02C377.79,291.69,377.93,291.83,377.93,292.25z"/>
	</g>
	<g>
		<path d="M61.16,291.15c0,0.42,0.11,0.53,0.53,0.53h4.14c0.42,0,0.59,0.17,0.59,0.59v0.17c0,0.42-0.17,0.59-0.59,0.59h-4.14
			c-0.42,0-0.53,0.11-0.53,0.53v7.87c0,0.42,0.11,0.53,0.53,0.53h4.14c0.42,0,0.59,0.17,0.59,0.59v0.17c0,0.42-0.17,0.59-0.59,0.59
			h-5.6c-0.42,0-0.59-0.17-0.59-0.59v-19.82c0-0.42,0.17-0.59,0.59-0.59h5.6c0.42,0,0.59,0.17,0.59,0.59v0.17
			c0,0.42-0.17,0.59-0.59,0.59h-4.14c-0.42,0-0.53,0.11-0.53,0.53V291.15z"/>
		<path d="M75.27,303.53c-2.6,0-4.51-2.07-4.65-4.34c0-0.25,0.03-0.5,0.36-0.5h0.59c0.31,0,0.45,0.08,0.48,0.36
			c0.22,1.68,1.51,3.02,3.25,3.02c1.76,0,3.08-1.37,3.08-3.3c0-4.56-7.36-7.7-7.36-12.52c0-2.35,1.79-4.17,4.06-4.17
			c2.24,0,3.84,1.79,4.06,3.78c0.03,0.25-0.03,0.5-0.36,0.5h-0.59c-0.31,0-0.42-0.08-0.48-0.36c-0.31-1.51-1.26-2.46-2.58-2.46
			c-1.46,0-2.6,1.15-2.6,2.63c0,3.75,7.36,7.28,7.36,12.52C79.89,301.46,77.85,303.53,75.27,303.53z"/>
		<path d="M84.23,302.72v-19.82c0-0.42,0.17-0.59,0.59-0.59h3.22c2.46,0,4.2,1.65,4.2,4.93v2.86c0,3.28-1.74,4.93-4.2,4.93h-1.76
			c-0.42,0-0.53,0.11-0.53,0.53v7.17c0,0.42-0.17,0.59-0.59,0.59h-0.34C84.4,303.31,84.23,303.14,84.23,302.72z M88.04,293.68
			c1.34,0,2.69-1.01,2.69-3.47v-3.08c0-2.46-1.34-3.47-2.69-3.47h-1.76c-0.42,0-0.53,0.11-0.53,0.53v8.96
			c0,0.42,0.11,0.53,0.53,0.53H88.04z"/>
		<path d="M98.65,282.87c0.08-0.48,0.28-0.56,0.73-0.56h0.28c0.45,0,0.62,0.08,0.73,0.56l4.03,19.88c0.08,0.42-0.11,0.56-0.42,0.56
			h-0.42c-0.36,0-0.53-0.14-0.62-0.56l-0.95-4.65c-0.08-0.34-0.2-0.39-0.56-0.39h-3.86c-0.36,0-0.5,0.06-0.56,0.39l-0.95,4.65
			c-0.08,0.42-0.25,0.56-0.62,0.56h-0.42c-0.31,0-0.5-0.14-0.42-0.56L98.65,282.87z M97.64,296.36h3.75c0.14,0,0.25-0.08,0.22-0.31
			l-1.93-10c-0.06-0.2-0.31-0.2-0.34,0l-1.93,10C97.37,296.28,97.5,296.36,97.64,296.36z"/>
		<path d="M107.95,298.6v-11.59c0-3.28,1.74-4.93,4.2-4.93c2.3,0,3.78,1.46,4.03,3.78c0.03,0.25-0.03,0.5-0.36,0.5h-0.56
			c-0.31,0-0.42-0.08-0.48-0.36c-0.31-1.51-1.29-2.46-2.6-2.46c-1.37,0-2.72,1.01-2.72,3.47v11.59c0,2.46,1.34,3.47,2.72,3.47
			c1.32,0,2.3-0.95,2.6-2.46c0.06-0.28,0.17-0.36,0.48-0.36h0.56c0.34,0,0.39,0.25,0.36,0.5c-0.25,2.32-1.74,3.78-4.03,3.78
			C109.68,303.53,107.95,301.88,107.95,298.6z"/>
		<path d="M122.31,291.15c0,0.42,0.11,0.53,0.53,0.53h4.14c0.42,0,0.59,0.17,0.59,0.59v0.17c0,0.42-0.17,0.59-0.59,0.59h-4.14
			c-0.42,0-0.53,0.11-0.53,0.53v7.87c0,0.42,0.11,0.53,0.53,0.53h4.14c0.42,0,0.59,0.17,0.59,0.59v0.17c0,0.42-0.17,0.59-0.59,0.59
			h-5.6c-0.42,0-0.59-0.17-0.59-0.59v-19.82c0-0.42,0.17-0.59,0.59-0.59h5.6c0.42,0,0.59,0.17,0.59,0.59v0.17
			c0,0.42-0.17,0.59-0.59,0.59h-4.14c-0.42,0-0.53,0.11-0.53,0.53V291.15z"/>
	</g>
</g>
</svg>
